<?xml version="1.0" encoding="iso-8859-1"?>
<!-- Uploaded to: SVG Repo, www.svgrepo.com, Generator: SVG Repo Mixer Tools -->
<svg fill="#021b67" height="800px" width="800px" version="1.1" id="Layer_1" xmlns="http://www.w3.org/2000/svg" xmlns:xlink="http://www.w3.org/1999/xlink" 
	 viewBox="0 0 512 512" xml:space="preserve">
<g>
	<g>
		<path d="M8.828,0v512h494.345V0H8.828z M450.207,326.621v79.448H61.793v-79.448v-256h388.414V326.621z"/>
	</g>
</g>
<g>
	<g>
		<path d="M361.931,97.103H150.069L61.793,326.621c0,0,75.919,52.966,194.207,52.966s194.207-52.966,194.207-52.966L361.931,97.103z
			 M379.586,256.002h-17.655v35.31c0,0.111-0.014,0.221-0.018,0.332c-0.028,3.826-0.459,7.705-1.358,11.587
			c-6.591,28.501-35.04,46.26-63.539,39.669l-51.604-11.937c-15.401-3.563-27.653-13.511-34.634-26.398
			c-12.977,1.4-26.324-0.708-38.488-6.504c-6.485,5.102-15.863,5.198-22.484-0.268c-6.61-5.461-8.264-14.686-4.495-22.012
			c-0.005-0.009-0.009-0.011-0.014-0.018c-19.016-25.849-18.854-62.24,2.512-88.103l0.004-0.002
			c21.37-25.861,57.074-32.888,86.048-19.089c0.004,0.004,0.009,0.007,0.016,0.011c6.487-5.085,15.853-5.199,22.466,0.261
			c6.617,5.47,8.294,14.696,4.509,22.027c8.303,11.285,12.948,24.576,13.773,38.125l20.683,4.783l14.92-37.3
			c3.623-9.055,13.902-13.455,22.95-9.836c9.054,3.623,13.457,13.896,9.836,22.95l-4.891,12.224
			c1.917-0.715,3.985-1.125,6.151-1.125h35.31c9.751,0.002,17.657,7.908,17.657,17.657S389.335,256.002,379.586,256.002z"/>
	</g>
</g>
</svg>